<svg width="64" height="91" viewBox="0 0 64 91" fill="none" xmlns="http://www.w3.org/2000/svg">
<path d="M56.4471 24.6254C56.4471 24.9785 56.1609 25.2647 55.8078 25.2647C55.4547 25.2647 55.1685 24.9785 55.1685 24.6254C55.1685 24.2723 55.4547 23.986 55.8078 23.986C56.1609 23.986 56.4471 24.2723 56.4471 24.6254Z" fill="white" stroke="white" stroke-width="1.5" stroke-linecap="round"/>
<path d="M43.7823 7.6379C43.7823 7.99099 43.4961 8.27723 43.143 8.27723C42.7899 8.27723 42.5037 7.99099 42.5037 7.6379C42.5037 7.28481 42.7899 6.99857 43.143 6.99857C43.4961 6.99857 43.7823 7.28481 43.7823 7.6379Z" fill="white" stroke="white" stroke-width="1.5" stroke-linecap="round"/>
<path d="M52.7204 89.7695C52.566 86.8364 55.0317 73.9377 56.5797 70.1645C59.0496 64.1441 64.4525 58.278 62.7545 50.7139C61.7195 46.1033 56.855 44.1286 53.1835 45.1566C49.3243 46.2372 48.7068 51.6401 50.2505 53.9557C51.4855 55.8081 54.8816 57.0431 57.5059 55.0362C59.8486 53.2447 58.818 49.942 57.1972 49.0158C55.036 47.7809 52.4974 48.5527 52.2573 50.7139C52.0172 52.8751 54.2641 54.11 55.8078 53.1838M46.3913 89.7695C46.2369 87.6083 43.3039 70.782 39.7534 63.3722C37.5359 58.7446 26.0144 45.1566 26.9406 37.9012C27.8669 30.6458 33.3565 29.6205 36.8203 30.6458C39.3756 31.4022 43.4582 34.1963 42.8408 38.5187C42.1987 43.0132 38.5184 44.5055 35.7397 44.3847C32.1892 44.2304 29.5649 41.7604 29.5649 38.5187C29.5649 34.9682 33.5786 32.1895 36.9747 33.8876C39.1359 34.9682 40.2165 37.9012 38.6728 39.7536C37.1291 41.6061 34.6965 41.6258 33.5786 40.6798C31.5718 38.9818 33.5786 35.4313 36.2028 36.8206M33.5786 90.2326C32.3436 84.8296 23.8533 62.446 18.4503 56.2712C15.5429 52.9485 2.55019 47.009 1.16088 39.7536C0.0576432 33.9922 4.78967 28.5929 10.4231 29.7196C15.0542 30.6458 16.4692 35.5856 15.9804 38.5187C15.6121 40.7283 13.0474 44.076 9.65122 43.6129C6.25508 43.1498 4.71138 40.2928 4.71138 37.7468C4.71138 34.9682 7.02693 32.4982 9.95996 32.9614C12.893 33.4245 13.8192 36.589 13.8192 37.9012C13.8192 39.5993 12.4299 41.7604 10.4231 41.7604C8.41626 41.7604 7.18411 39.9332 7.02693 38.5187C6.78677 36.3575 8.87937 34.1963 11.0405 36.3575M40.6796 89.7695C39.9077 82.051 39.567 61.9138 43.3039 51.9488C47.4719 40.8342 63.7105 34.151 63.0632 25.0885C62.6001 18.605 57.0428 16.7525 52.8748 17.8331C49.4753 18.7145 47.3175 23.0817 48.7068 26.4778C50.0961 29.874 54.6292 31.5355 57.1972 30.3371C59.5127 29.2565 60.8664 26.6322 59.5127 23.6992C58.5865 21.6923 55.8078 19.8399 53.3379 21.0749C51.3311 22.0783 50.5592 24.3166 51.6398 26.4778C52.8114 28.821 55.8078 29.2565 57.3515 27.404C58.3807 26.1691 57.6603 23.6992 55.8078 24.0079M24.3164 89.7695C25.0882 76.0305 29.1018 49.0158 32.3436 40.6798C38.0071 26.1166 50.5593 19.2224 50.5593 9.49713C50.5593 3.32233 45.3107 0.852413 41.7602 1.00678C37.2877 1.20124 32.8067 5.63788 34.0417 9.80587C35.4735 14.6383 40.834 16.135 43.767 14.7457C46.7 13.3564 48.2437 10.5777 47.1631 7.49032C46.1729 4.66127 43.1495 3.32233 40.2165 4.40292C38.0553 5.19915 36.9747 7.49032 37.5922 9.18839C38.2096 10.8865 40.0621 12.2758 41.7602 11.6583C43.3822 11.0685 43.767 9.6515 43.767 8.41654M14.128 89.7695C13.6649 71.8626 17.1111 53.5648 20.1484 45.4653C23.3902 36.8206 29.565 27.0953 30.1824 21.538C30.9017 15.0649 26.0179 13.0476 22.6183 13.0476C18.6047 13.0476 15.9925 17.9134 16.4435 20.9205C16.9066 24.0079 20.6115 27.0953 24.3164 25.8603C27.1555 24.914 28.1756 21.6923 28.0212 19.8399C27.8669 17.9875 26.6448 15.6719 22.927 15.6719C20.1484 15.6719 17.9872 18.7593 18.9134 20.9205C19.8397 23.0817 21.7048 24.0788 23.3902 23.236C25.2426 22.3098 25.5513 19.8399 24.3164 19.0681" stroke="white" stroke-width="1.5" stroke-linecap="round"/>
<circle cx="55.8013" cy="52.4052" r="0.75" fill="white" stroke="white" stroke-width="1.27866" stroke-linecap="round"/>
<circle cx="36.1963" cy="37.4313" r="0.75" fill="white" stroke="white" stroke-width="0.969918" stroke-linecap="round"/>
<circle cx="24.0011" cy="19.9875" r="0.948069" fill="white" stroke="white" stroke-width="1.5" stroke-linecap="round"/>
<circle cx="10.4166" cy="36.9682" r="0.948069" fill="white" stroke="white" stroke-width="1.5" stroke-linecap="round"/>
</svg>
