<svg width="317" height="179" viewBox="0 0 317 179" fill="none" xmlns="http://www.w3.org/2000/svg">
<g clip-path="url(#clip0_34_42)">
<path d="M265.5 168C265.5 173.799 270.201 178.5 276 178.5C281.799 178.5 286.5 173.799 286.5 168H265.5ZM171.861 49.5C221.589 49.5 265.5 100.343 265.5 168H286.5C286.5 93.1673 237.162 28.5 171.861 28.5V49.5ZM96.101 98.4468C113.563 68.0991 141.442 49.5 171.861 49.5V28.5C132.265 28.5 98.1976 52.6958 77.899 87.9735L96.101 98.4468Z" fill="black"/>
<path d="M295.5 167C295.5 172.799 300.201 177.5 306 177.5C311.799 177.5 316.5 172.799 316.5 167H295.5ZM172.528 21.5C238.967 21.5 295.5 85.0466 295.5 167H316.5C316.5 76.6405 253.518 0.5 172.528 0.5V21.5ZM64.5323 97.4028C85.7279 51.5132 126.616 21.5 172.528 21.5V0.5C116.835 0.5 69.3753 36.8358 45.4677 88.5972L64.5323 97.4028Z" fill="black"/>
<path d="M235.5 167C235.5 172.799 240.201 177.5 246 177.5C251.799 177.5 256.5 172.799 256.5 167H235.5ZM171.857 79.5C188.324 79.5 204.001 88.2973 215.91 104.039C227.825 119.786 235.5 142.012 235.5 167H256.5C256.5 137.864 247.578 111.09 232.657 91.3684C217.732 71.6408 196.337 58.5 171.857 58.5V79.5ZM118.486 119.501C130.447 94.2958 150.628 79.5 171.857 79.5V58.5C140.094 58.5 113.775 80.4444 99.5138 110.499L118.486 119.501Z" fill="black"/>
<path d="M95.2791 108.847L85.3184 109.732C85.7844 114.976 90.2353 118.96 95.4979 118.845L95.2791 108.847ZM42.9554 109.622L43.595 119.602C48.2968 119.3 52.1505 115.758 52.8459 111.098L42.9554 109.622ZM60.9482 147.343L68.5479 140.843C65.2509 136.988 59.5897 136.212 55.3772 139.038L60.9482 147.343ZM105.24 107.962C105.143 106.872 104.988 105.78 104.773 104.69L85.1508 108.558C85.2285 108.953 85.2839 109.344 85.3184 109.732L105.24 107.962ZM104.773 104.69C100.988 85.4895 81.1847 75.1955 62.5624 78.8667L66.4307 98.489C76.4389 96.516 83.9153 102.292 85.1508 108.558L104.773 104.69ZM62.5624 78.8667C47.3221 81.8712 35.2473 93.5208 33.0649 108.146L52.8459 111.098C53.6405 105.772 58.5139 100.05 66.4307 98.489L62.5624 78.8667ZM42.3158 99.6426C39.9568 99.7938 37.5654 100.103 35.1629 100.576L39.0313 120.199C40.5824 119.893 42.1089 119.697 43.595 119.602L42.3158 99.6426ZM35.1629 100.576C24.847 102.61 15.6548 107.43 9.22814 114.084C2.83135 120.708 -1.44545 129.953 0.538726 140.018L20.1611 136.15C19.7952 134.294 20.3309 131.378 23.6147 127.978C26.8686 124.608 32.225 121.54 39.0313 120.199L35.1629 100.576ZM0.538726 140.018C2.52291 150.083 9.98849 157.013 18.4206 160.713C26.8921 164.431 37.2258 165.401 47.5417 163.368L43.6733 143.745C36.867 145.087 30.747 144.282 26.4577 142.399C22.1291 140.5 20.527 138.006 20.1611 136.15L0.538726 140.018ZM47.5417 163.368C54.6093 161.974 61.0911 159.289 66.5193 155.647L55.3772 139.038C52.2557 141.132 48.2686 142.839 43.6733 143.745L47.5417 163.368ZM93.7685 146.1C81.3878 148.541 72.0041 144.884 68.5479 140.843L53.3485 153.842C63.0887 165.231 80.9501 169.012 97.6369 165.723L93.7685 146.1ZM115.398 128.077C115.819 130.213 115.15 133.536 111.347 137.372C107.592 141.16 101.474 144.581 93.7685 146.1L97.6369 165.723C108.738 163.534 118.628 158.438 125.552 151.451C132.428 144.514 137.109 134.805 135.02 124.208L115.398 128.077ZM95.4979 118.845C101.61 118.711 106.716 120.054 110.205 122.037C113.664 124.003 115.036 126.239 115.398 128.077L135.02 124.208C133.265 115.305 127.265 108.728 120.086 104.648C112.935 100.585 104.134 98.6509 95.0604 98.8495L95.4979 118.845Z" fill="black"/>
</g>
<defs>
<clipPath id="clip0_34_42">
<rect width="317" height="179" fill="white"/>
</clipPath>
</defs>
</svg>
