<svg width="75" height="54" viewBox="0 0 75 54" fill="none" xmlns="http://www.w3.org/2000/svg">
<path d="M34.9396 32.5667L25.9612 29.8086L41.4918 20.3695L52.3511 17.5119C58.4086 27.2783 61.8289 32.8059 62.6122 34.0945C64.7457 37.6049 66.6001 39.8552 68.1754 40.845C69.795 41.8078 71.9628 41.9204 74.6786 41.1825C71.9922 43.9713 68.6377 45.3103 64.6151 45.1995C60.6639 45.1061 57.5374 43.4161 55.2356 40.1295L53.2127 37.2516C52.4502 39.6014 51.6947 41.6122 50.9462 43.2842C50.1707 44.9117 49.1412 46.5718 47.8577 48.2647C46.6186 49.9305 45.0564 51.2147 43.1709 52.1172C41.3568 53.0372 39.2283 53.5398 36.7852 53.6251C29.7322 53.8347 24.38 53.5888 20.7285 52.8872C17.5231 52.2188 14.6453 51.1382 12.0952 49.6456C9.54496 48.153 7.48836 46.4212 5.92546 44.4503C4.40686 42.4524 3.12796 40.248 2.08866 37.8371C1.09376 35.3993 0.526657 32.9143 0.387457 30.3824C0.248157 27.8505 0.318357 25.3129 0.598157 22.7696C0.878057 20.2264 1.51116 17.864 2.49746 15.6823C3.52836 13.4737 4.68066 11.465 5.95456 9.65625C7.24596 7.77605 8.83826 6.29105 10.7316 5.20125C12.625 4.11135 14.5963 3.40006 16.6455 3.06736C26.8143 1.87676 33.463 1.15225 36.5918 0.893555L35.8727 6.16825C35.0171 6.26235 31.1147 6.89995 24.1653 8.08105C21.7239 8.46945 19.767 9.35465 18.2945 10.7364C16.822 12.1182 15.5742 13.8197 14.5512 15.8411C13.5457 17.7909 12.9784 19.9612 12.8493 22.352C12.7202 24.7428 12.792 27.1637 13.0646 29.6146C13.3102 32.021 13.9478 34.3717 14.9776 36.6668C16.0517 38.9348 17.2806 40.9566 18.6641 42.7324C20.092 44.4811 21.8524 45.8757 23.9451 46.9161C26.0379 47.9565 28.2836 48.4475 30.6822 48.3893C32.7332 48.3598 34.5363 47.8724 36.0916 46.9271C37.6913 45.9548 38.9909 44.739 39.9903 43.2797C40.9627 41.7759 41.7692 40.0992 42.4096 38.2495C43.0946 36.3728 43.6414 34.5192 44.0501 32.6887C44.4588 30.8581 44.8279 29.1125 45.1573 27.4519C45.2523 26.9074 45.3125 26.5057 45.3377 26.2469L34.9396 32.5667Z" fill="black"/>
</svg>
