<svg width="142" height="95" viewBox="0 0 142 95" fill="none" xmlns="http://www.w3.org/2000/svg">
<path d="M28.8 48.128L23.68 42.368H38.592L47.424 44.992C47.5093 54.4213 47.552 59.7547 47.552 60.992C47.552 64.3627 47.8933 66.7307 48.576 68.096C49.3013 69.4613 50.7733 70.464 52.992 71.104C49.92 71.9147 46.9973 71.424 44.224 69.632C41.4933 67.8827 40.0213 65.3653 39.808 62.08L39.616 59.2C38.08 60.5227 36.6933 61.6107 35.456 62.464C34.2187 63.2747 32.7893 64 31.168 64.64C29.5893 65.28 27.9467 65.5147 26.24 65.344C24.576 65.216 22.8693 64.6613 21.12 63.68C16.0853 60.8213 12.4373 58.368 10.176 56.32C8.21333 54.4853 6.656 52.5013 5.504 50.368C4.352 48.2347 3.648 46.144 3.392 44.096C3.17867 42.048 3.22133 39.9573 3.52 37.824C3.86133 35.6907 4.52267 33.7067 5.504 31.872C6.48533 30.0373 7.616 28.288 8.896 26.624C10.176 24.96 11.6267 23.5733 13.248 22.464C14.912 21.3547 16.576 20.4373 18.24 19.712C19.9467 18.944 21.696 18.5813 23.488 18.624C25.28 18.6667 26.9653 19.008 28.544 19.648C36.1813 23.1467 41.152 25.472 43.456 26.624L40.704 30.016C40.064 29.7173 37.056 28.5013 31.68 26.368C29.8027 25.6 28.0533 25.3867 26.432 25.728C24.8107 26.0693 23.2107 26.7307 21.632 27.712C20.096 28.6507 18.7733 29.9307 17.664 31.552C16.5547 33.1733 15.5733 34.9013 14.72 36.736C13.8667 38.528 13.312 40.448 13.056 42.496C12.8427 44.544 12.8427 46.4853 13.056 48.32C13.312 50.1547 13.952 51.8827 14.976 53.504C16 55.1253 17.3653 56.4267 19.072 57.408C20.5227 58.2613 21.9947 58.688 23.488 58.688C25.024 58.688 26.4533 58.3893 27.776 57.792C29.0987 57.152 30.3787 56.32 31.616 55.296C32.896 54.272 34.0693 53.2053 35.136 52.096C36.2027 50.9867 37.2053 49.92 38.144 48.896C38.4427 48.5547 38.656 48.2987 38.784 48.128H28.8Z" fill="black"/>
<path d="M46.48 37.62C46.56 37.7933 47.5 37.6933 49.3 37.32C51.1133 36.9333 52.08 36.8 52.2 36.92C52.7733 37.48 53.1467 38.0667 53.32 38.68C53.4933 39.2933 53.4733 39.8533 53.26 40.36C53.0467 40.8667 52.7333 41.3267 52.32 41.74C51.9067 42.1667 51.4067 42.5 50.82 42.74C50.2333 42.98 49.64 43.1 49.04 43.1C48.0267 43.1 47.0067 42.8 45.98 42.2C44.9667 41.6133 44.3533 41.1067 44.14 40.68C44.1133 40.64 44.12 40.58 44.16 40.5C44.2 40.4333 44.2733 40.3467 44.38 40.24C44.4867 40.1333 44.6 40.02 44.72 39.9C44.8533 39.78 45.0267 39.6133 45.24 39.4C45.4533 39.2 45.6533 39.0067 45.84 38.82C45.6933 38.6067 45.1733 37.7933 44.28 36.38C44.2533 36.2867 44.2333 36.2133 44.22 36.16C44.2067 36.1067 44.24 36.06 44.32 36.02C44.4133 35.9667 44.5067 35.9267 44.6 35.9C44.6933 35.86 44.8267 35.82 45 35.78C45.1867 35.74 45.36 35.7067 45.52 35.68C45.6933 35.6533 45.9 35.6133 46.14 35.56C46.3933 35.4933 46.6267 35.4267 46.84 35.36C46.6 35.2133 46.14 34.8467 45.46 34.26C45.0467 33.9133 44.7333 33.54 44.52 33.14C44.3067 32.7267 44.2 32.34 44.2 31.98C44.2 31.6067 44.26 31.2333 44.38 30.86C44.5 30.4867 44.6867 30.1533 44.94 29.86C45.1933 29.5667 45.46 29.2933 45.74 29.04C46.0333 28.7867 46.3467 28.6 46.68 28.48C47.0267 28.3467 47.3467 28.26 47.64 28.22C47.9333 28.18 48.2133 28.2267 48.48 28.36C49.3867 28.8 50.0267 29.1333 50.4 29.36H53.96L54.56 30.76H51.84C53.4133 33.5467 52.3333 35.58 48.6 36.86C48.3067 36.9533 47.9133 37.0733 47.42 37.22C46.7933 37.42 46.48 37.5533 46.48 37.62ZM49.64 30.2C49.08 29.7867 48.4533 29.8533 47.76 30.4C47.08 30.9467 46.6667 31.62 46.52 32.42C46.3867 33.22 46.6067 33.8867 47.18 34.42C47.7267 34.7933 48.3533 34.7267 49.06 34.22C49.78 33.7 50.2133 33.06 50.36 32.3C50.52 31.5267 50.28 30.8267 49.64 30.2ZM46.48 39.68L46.38 39.58L45.48 40.68C46.4533 41.1067 47.4133 41.26 48.36 41.14C49.32 41.02 50.1467 40.72 50.84 40.24C51.5467 39.7733 51.8933 39.28 51.88 38.76C51.88 38.6667 51.4867 38.76 50.7 39.04C49.9267 39.3333 49.14 39.5867 48.34 39.8C47.54 40.0133 46.92 39.9733 46.48 39.68ZM58.1555 34.02L62.6955 30.92C61.7355 30.3067 60.9155 30.08 60.2355 30.24C59.5688 30.4 59.0555 30.82 58.6955 31.5C58.3355 32.1667 58.1555 33.0067 58.1555 34.02ZM58.6155 35.94C58.9888 36.3933 59.4088 36.6733 59.8755 36.78C60.3421 36.8867 60.8288 36.8267 61.3355 36.6C61.8555 36.36 62.2888 36.1267 62.6355 35.9C62.9821 35.66 63.3888 35.3467 63.8555 34.96L64.2555 35.36C64.5088 35.64 64.7621 35.92 65.0155 36.2L65.4155 36.6C64.2555 37.4533 63.2755 38.02 62.4755 38.3C61.6755 38.5933 60.8821 38.5933 60.0955 38.3C58.9488 37.86 57.8688 37.0867 56.8555 35.98C56.2555 35.3133 55.9088 34.5267 55.8155 33.62C55.7221 32.7 55.8355 31.8467 56.1555 31.06C56.4888 30.2733 56.9955 29.6067 57.6755 29.06C58.3688 28.5 59.1221 28.22 59.9355 28.22C60.4688 28.22 61.2555 28.5667 62.2955 29.26C63.3488 29.94 64.2221 30.6067 64.9155 31.26C64.9021 31.3 64.3688 31.7133 63.3155 32.5C62.2755 33.2733 61.2288 34.04 60.1755 34.8L58.6155 35.94ZM69.6702 29V29.54C70.6168 28.62 71.4902 28.1867 72.2902 28.24C72.5435 28.2533 72.9568 28.4933 73.5302 28.96C74.1035 29.4133 74.6502 29.92 75.1702 30.48C76.4235 28.92 77.5835 28.1733 78.6502 28.24C79.0768 28.2667 79.8235 28.8 80.8902 29.84C81.9702 30.8667 82.5435 31.5667 82.6102 31.94C82.6635 32.2867 82.6902 34.5 82.6902 38.58L80.2102 38.02C80.2902 33.4333 80.2568 31.0067 80.1102 30.74C79.9502 30.4467 79.7168 30.2933 79.4102 30.28C79.1168 30.2667 78.7902 30.3667 78.4302 30.58C78.0835 30.7933 77.7302 31.0667 77.3702 31.4C77.0102 31.72 76.6502 32.0867 76.2902 32.5C76.3168 33.2333 76.3302 35.26 76.3302 38.58L73.8502 38.02C73.9302 33.4333 73.8968 31.0067 73.7502 30.74C73.5502 30.4467 73.2968 30.2933 72.9902 30.28C72.6968 30.2667 72.3502 30.3933 71.9502 30.66C71.5502 30.9133 71.1568 31.2267 70.7702 31.6C70.3968 31.96 70.0302 32.3667 69.6702 32.82V38.58L67.1702 38.02V28.44L69.6702 29ZM86.3855 27.22C85.7055 26.9 85.1988 26.4133 84.8655 25.76C84.8921 25.5467 85.0921 25.2733 85.4655 24.94C85.8388 24.6067 86.1388 24.4133 86.3655 24.36C87.0455 24.6667 87.5455 25.14 87.8655 25.78C87.6388 26.3533 87.1455 26.8333 86.3855 27.22ZM87.5855 29V38.58L85.0855 38.02V28.44L87.5855 29ZM97.4528 29.1L97.2328 30.18C95.9395 29.8867 95.0861 29.7667 94.6728 29.82C94.0195 29.9 93.5061 30.22 93.1328 30.78C92.7595 31.3267 92.6261 31.8533 92.7328 32.36C92.7595 32.48 93.0661 32.4667 93.6528 32.32C94.2395 32.1733 94.8795 32.0267 95.5728 31.88C96.2661 31.72 96.7128 31.6933 96.9128 31.8C97.8328 32.28 98.4528 32.9133 98.7728 33.7C99.0928 34.4867 99.1261 35.24 98.8728 35.96C98.6328 36.6667 98.1328 37.28 97.3728 37.8C96.6128 38.32 95.6995 38.58 94.6328 38.58C93.7528 38.58 92.9328 38.34 92.1728 37.86C91.4261 37.3667 90.5461 36.6333 89.5328 35.66L89.8928 34.98C90.7995 35.66 91.7595 36.12 92.7728 36.36C93.7861 36.5867 94.7261 36.4933 95.5928 36.08C96.4728 35.6667 97.0595 34.9067 97.3528 33.8C97.3661 33.7467 97.3061 33.7267 97.1728 33.74C97.0261 33.7533 96.6595 33.84 96.0728 34C94.2195 34.4933 93.0395 34.64 92.5328 34.44L92.3528 34.34C91.6195 33.78 91.0261 33.1667 90.5728 32.5C90.2395 32.0467 90.0995 31.5667 90.1528 31.06C90.2195 30.5533 90.3928 30.0933 90.6728 29.68C90.9528 29.2533 91.3728 28.9067 91.9328 28.64C92.4928 28.36 93.1061 28.22 93.7728 28.22C93.9728 28.22 94.2528 28.26 94.6128 28.34C94.9861 28.42 95.5061 28.56 96.1728 28.76C96.8528 28.9467 97.2795 29.06 97.4528 29.1ZM109.063 29.8L108.343 30.84C108.143 30.7733 107.91 30.6933 107.643 30.6C107.377 30.4933 107.17 30.42 107.023 30.38C106.877 30.3267 106.717 30.2733 106.543 30.22C106.37 30.1667 106.223 30.1333 106.103 30.12C105.997 30.0933 105.897 30.08 105.803 30.08C104.937 30.12 104.203 30.68 103.603 31.76C103.03 32.8 102.81 33.8467 102.943 34.9C103.063 35.9533 103.53 36.54 104.343 36.66C105.29 36.7933 106.557 36.2467 108.143 35.02L108.523 35.46C108.79 35.7533 109.05 36.0533 109.303 36.36L109.683 36.8C109.163 37.1867 108.703 37.5 108.303 37.74C107.917 37.98 107.517 38.1733 107.103 38.32C106.69 38.48 106.283 38.5533 105.883 38.54C105.497 38.54 105.097 38.46 104.683 38.3C103.537 37.86 102.457 37.0867 101.443 35.98C100.843 35.3133 100.51 34.5267 100.443 33.62C100.39 32.7 100.55 31.8467 100.923 31.06C101.31 30.2733 101.877 29.6067 102.623 29.06C103.37 28.5 104.183 28.22 105.063 28.22C105.477 28.22 106.81 28.7467 109.063 29.8ZM113.987 24.36V29.92C115.227 28.7333 116.3 28.1733 117.207 28.24C117.633 28.2667 118.38 28.8 119.447 29.84C120.527 30.8667 121.1 31.5667 121.167 31.94C121.22 32.2867 121.247 34.5 121.247 38.58L118.767 38.02C118.847 33.4467 118.813 31.0267 118.667 30.76C118.413 30.2933 118 30.16 117.427 30.36C116.867 30.5467 116.28 30.8933 115.667 31.4C115.067 31.8933 114.507 32.4533 113.987 33.08V38.58L111.487 38.02V23.8L113.987 24.36ZM122.96 29.84L122.36 28.44H124V26.28L126.46 26.84V28.44H128.9L129.5 29.84H126.46V32.38C126.46 32.5267 126.46 32.7467 126.46 33.04C126.46 33.4 126.453 33.76 126.44 34.12C126.44 34.48 126.46 34.82 126.5 35.14C126.553 35.46 126.613 35.7533 126.68 36.02C126.747 36.2867 126.86 36.5 127.02 36.66C127.18 36.82 127.373 36.9267 127.6 36.98C127.827 37.0333 128.113 37 128.46 36.88C128.82 36.7467 129.227 36.5333 129.68 36.24L130.22 36.86C129.447 37.5667 128.8 38.06 128.28 38.34C127.88 38.5667 127.327 38.5267 126.62 38.22C125.927 37.9267 125.313 37.5133 124.78 36.98C124.26 36.4333 124 35.96 124 35.56V29.84H122.96ZM133.917 34.02L138.457 30.92C137.497 30.3067 136.677 30.08 135.997 30.24C135.331 30.4 134.817 30.82 134.457 31.5C134.097 32.1667 133.917 33.0067 133.917 34.02ZM134.377 35.94C134.751 36.3933 135.171 36.6733 135.637 36.78C136.104 36.8867 136.591 36.8267 137.097 36.6C137.617 36.36 138.051 36.1267 138.397 35.9C138.744 35.66 139.151 35.3467 139.617 34.96L140.017 35.36C140.271 35.64 140.524 35.92 140.777 36.2L141.177 36.6C140.017 37.4533 139.037 38.02 138.237 38.3C137.437 38.5933 136.644 38.5933 135.857 38.3C134.711 37.86 133.631 37.0867 132.617 35.98C132.017 35.3133 131.671 34.5267 131.577 33.62C131.484 32.7 131.597 31.8467 131.917 31.06C132.251 30.2733 132.757 29.6067 133.437 29.06C134.131 28.5 134.884 28.22 135.697 28.22C136.231 28.22 137.017 28.5667 138.057 29.26C139.111 29.94 139.984 30.6067 140.677 31.26C140.664 31.3 140.131 31.7133 139.077 32.5C138.037 33.2733 136.991 34.04 135.937 34.8L134.377 35.94Z" fill="black"/>
<path d="M52.3 64.02L56.84 60.92C55.88 60.3067 55.06 60.08 54.38 60.24C53.7133 60.4 53.2 60.82 52.84 61.5C52.48 62.1667 52.3 63.0067 52.3 64.02ZM52.76 65.94C53.1333 66.3933 53.5533 66.6733 54.02 66.78C54.4867 66.8867 54.9733 66.8267 55.48 66.6C56 66.36 56.4333 66.1267 56.78 65.9C57.1267 65.66 57.5333 65.3467 58 64.96L58.4 65.36C58.6533 65.64 58.9067 65.92 59.16 66.2L59.56 66.6C58.4 67.4533 57.42 68.02 56.62 68.3C55.82 68.5933 55.0267 68.5933 54.24 68.3C53.0933 67.86 52.0133 67.0867 51 65.98C50.4 65.3133 50.0533 64.5267 49.96 63.62C49.8667 62.7 49.98 61.8467 50.3 61.06C50.6333 60.2733 51.14 59.6067 51.82 59.06C52.5133 58.5 53.2667 58.22 54.08 58.22C54.6133 58.22 55.4 58.5667 56.44 59.26C57.4933 59.94 58.3667 60.6067 59.06 61.26C59.0467 61.3 58.5133 61.7133 57.46 62.5C56.42 63.2733 55.3733 64.04 54.32 64.8L52.76 65.94ZM61.1147 59.84L60.5147 58.44H62.5947V56.7C62.5947 56.3 62.8547 55.8333 63.3747 55.3C63.908 54.7533 64.5214 54.3333 65.2147 54.04C65.9214 53.7333 66.4747 53.6933 66.8747 53.92C67.6747 54.36 68.4147 54.8867 69.0947 55.5L68.6547 56.04C67.9747 55.6667 67.4014 55.4733 66.9347 55.46C66.4814 55.4333 66.108 55.5867 65.8147 55.92C65.5347 56.2533 65.3347 56.6333 65.2147 57.06C65.0947 57.4733 65.028 57.9333 65.0147 58.44H67.0547L67.6547 59.84H65.0147L65.1147 68.58L62.6147 68.02C62.6014 65.66 62.5947 62.9333 62.5947 59.84H61.1147ZM75.5834 56.96C75.0234 56.7067 74.5901 56.2867 74.2834 55.7C74.2968 55.5133 74.4634 55.2733 74.7834 54.98C75.1168 54.6867 75.3834 54.52 75.5834 54.48C76.1968 54.76 76.6234 55.1733 76.8634 55.72C76.6901 56.2 76.2634 56.6133 75.5834 56.96ZM72.0434 56.96C71.4834 56.7067 71.0501 56.2867 70.7434 55.7C70.7568 55.5133 70.9234 55.2733 71.2434 54.98C71.5768 54.6867 71.8434 54.52 72.0434 54.48C72.6568 54.76 73.0834 55.1733 73.3234 55.72C73.1501 56.2 72.7234 56.6133 72.0434 56.96ZM76.3034 58.46L78.8034 59.02V68.6L76.3034 68.04V67.04C75.2368 68.1333 74.2501 68.6467 73.3434 68.58C72.9168 68.5533 72.1568 68.06 71.0634 67.1C69.9701 66.14 69.3901 65.4733 69.3234 65.1C69.2701 64.7533 69.2434 62.54 69.2434 58.46L71.7234 59.02C71.6568 63.6067 71.6901 66.04 71.8234 66.32C72.0901 66.6933 72.4901 66.8133 73.0234 66.68C73.5701 66.5467 74.1701 66.1667 74.8234 65.54C75.4901 64.9133 75.9834 64.2267 76.3034 63.48V58.46ZM83.6194 54.36V59.92C84.8594 58.7333 85.9327 58.1733 86.8394 58.24C87.266 58.2667 88.0127 58.8 89.0794 59.84C90.1594 60.8667 90.7327 61.5667 90.7994 61.94C90.8527 62.2867 90.8794 64.5 90.8794 68.58L88.3994 68.02C88.4794 63.4467 88.446 61.0267 88.2994 60.76C88.046 60.2933 87.6327 60.16 87.0594 60.36C86.4994 60.5467 85.9127 60.8933 85.2994 61.4C84.6994 61.8933 84.1394 62.4533 83.6194 63.08V68.58L81.1194 68.02V53.8L83.6194 54.36ZM95.553 54.36V68.58L93.053 68.02V53.8L95.553 54.36ZM99.9172 64.02L104.457 60.92C103.497 60.3067 102.677 60.08 101.997 60.24C101.331 60.4 100.817 60.82 100.457 61.5C100.097 62.1667 99.9172 63.0067 99.9172 64.02ZM100.377 65.94C100.751 66.3933 101.171 66.6733 101.637 66.78C102.104 66.8867 102.591 66.8267 103.097 66.6C103.617 66.36 104.051 66.1267 104.397 65.9C104.744 65.66 105.151 65.3467 105.617 64.96L106.017 65.36C106.271 65.64 106.524 65.92 106.777 66.2L107.177 66.6C106.017 67.4533 105.037 68.02 104.237 68.3C103.437 68.5933 102.644 68.5933 101.857 68.3C100.711 67.86 99.6305 67.0867 98.6172 65.98C98.0172 65.3133 97.6705 64.5267 97.5772 63.62C97.4839 62.7 97.5972 61.8467 97.9172 61.06C98.2505 60.2733 98.7572 59.6067 99.4372 59.06C100.131 58.5 100.884 58.22 101.697 58.22C102.231 58.22 103.017 58.5667 104.057 59.26C105.111 59.94 105.984 60.6067 106.677 61.26C106.664 61.3 106.131 61.7133 105.077 62.5C104.037 63.2733 102.991 64.04 101.937 64.8L100.377 65.94Z" fill="black"/>
</svg>
