<svg width="195" height="32" viewBox="0 0 195 32" fill="none" xmlns="http://www.w3.org/2000/svg">
<path d="M4 28C15.6069 15.3333 43.3344 20.6667 45.9138 10.6667C46.7735 7.33336 42.6896 4 38.8207 4C34.9517 4 33.662 7.33338 33.662 10.6667C33.662 13.5487 36.0314 16.2928 38.8207 17.3334C41.1932 18.2184 43.8391 17.6398 45.9138 17.3334C51.7172 16.4762 66.5482 6 78.8 6.66667M78.8 6.66667C91.0517 7.33333 95.5655 12 95.5655 16M78.8 6.66667C90.1718 7.28545 94.8772 11.3503 95.4944 15.1296M95.5655 16C95.5655 18.6667 92.9862 22 90.4069 22.6667C87.8275 23.3334 85.2482 22 84.6034 20M95.5655 16C95.5655 15.7127 95.5422 15.422 95.4944 15.1296M84.6034 20C83.0988 15.3333 91.6965 12 100.724 17.3334M84.6034 20C83.3963 16.256 88.6915 13.3703 95.4944 15.1296M100.724 17.3334C107.172 21.1429 112.976 24 122.648 24C132.321 24 145.856 12.9554 143.5 8C141.598 4 135.5 3 134.5 7.50001C133.5 12 136 13 141.598 14.7375C142.517 15.0227 143.543 14.9327 144.572 14.6667C149.731 13.3334 156.824 9.33333 164.562 9.33333C175.524 9.33333 191 14.6667 191 14.6667M100.724 17.3334C98.9391 16.2788 97.171 15.5631 95.4944 15.1296" stroke="black" stroke-width="6.5" stroke-linecap="round"/>
</svg>
