<svg width="91" height="93" viewBox="0 0 91 93" fill="none" xmlns="http://www.w3.org/2000/svg">
<path d="M67.6344 57.7332C73.4094 57.7332 83.1824 39.8884 83.1824 39.8884C83.1824 39.8884 84.4864 59.7835 88.7353 68.8862C97.0646 86.731 61.5262 68.8862 61.5262 68.8862C61.5262 68.8862 57.0839 86.1733 52.0864 91.7498C40.9806 95.6534 40.4253 52.1567 27.6538 80.5968C24.3614 87.9283 16.548 55.5026 1 62.1944L30.9855 43.2343C26.9309 38.8231 -2.33172 29.0928 8.21872 25.3895C15.9927 22.6608 37.0936 39.8884 27.6538 7.00673C22.4236 -11.2113 40.4253 31.5237 40.4253 31.5237C40.4253 31.5237 44.8676 24.8122 44.8676 15.9095C44.8676 -0.262354 59.5448 -6.2186 55.4181 13.1212C52.0864 28.7354 76.519 15.9095 76.519 15.9095C62.0815 31.5237 60.9118 57.7332 67.6344 57.7332Z" fill="black" stroke="black" stroke-linecap="round"/>
</svg>
