<svg width="82" height="104" viewBox="0 0 82 104" fill="none" xmlns="http://www.w3.org/2000/svg">
<path d="M78 4C67.5385 13.9886 63.5495 30.9382 56.8431 44.6737M56.8431 44.6737C53.7975 50.9114 50.1915 56.4862 45.1644 60.4453M56.8431 44.6737C52.3036 40.2291 46.2639 36.7845 40.133 35.1441C24.1274 30.8618 13.8994 37.48 10.8544 47.6018C10.2276 49.6852 10.5049 53.0718 11.9685 56.4021M56.8431 44.6737C64.1545 51.8324 67.5739 61.5851 61.2136 70.5706C59.7218 72.6782 58.0319 74.6378 56.1899 76.4242M45.1644 60.4453C41.8465 63.0584 37.9096 64.9676 33.1061 65.899C21.1016 68.2267 14.6072 62.4059 11.9685 56.4021M45.1644 60.4453C40.7369 56.6858 36.0443 54.1072 33.1061 53.4413C25.4167 51.6986 17.5697 52.9563 11.9685 56.4021M45.1644 60.4453C50.1044 64.64 54.7145 70.305 56.1899 76.4242M11.9685 56.4021C8.75437 58.3794 6.27972 61.0771 4.9987 64.3418C1.48526 73.2957 7.34097 81.8604 21.0043 86.532C32.4921 90.4597 46.4634 85.8565 56.1899 76.4242M56.1899 76.4242C57.2574 80.8519 56.6836 85.5173 53.406 90.0357C40.133 108.333 19.4428 96.6538 15.1486 92.3715" stroke="black" stroke-width="6.5" stroke-linecap="round"/>
</svg>
